<?xml version="1.0" standalone="no"?>
<!DOCTYPE svg PUBLIC "-//W3C//DTD SVG 20010904//EN"
 "http://www.w3.org/TR/2001/REC-SVG-20010904/DTD/svg10.dtd">
<svg version="1.0" xmlns="http://www.w3.org/2000/svg"
 width="192.000000pt" height="192.000000pt" viewBox="0 0 192.000000 192.000000"
 preserveAspectRatio="xMidYMid meet">

<g transform="translate(0.000000,192.000000) scale(0.100000,-0.100000)"
fill="#000000" stroke="none">
<path d="M1500 1593 c-131 -14 -346 -49 -460 -75 -309 -70 -493 -159 -595
-289 -131 -167 -160 -388 -75 -575 27 -61 96 -164 110 -164 3 0 25 39 49 86
101 198 290 398 476 505 38 22 37 20 -26 -47 -155 -163 -257 -345 -315 -559
-13 -49 -24 -93 -24 -97 0 -13 133 -49 206 -55 175 -15 365 72 475 217 128
169 234 549 274 988 l7 72 -33 -2 c-19 0 -50 -3 -69 -5z"/>
</g>
</svg>
